<svg width="48" height="48" viewBox="0 0 48 48" fill="none" xmlns="http://www.w3.org/2000/svg">
<path d="M38.0337 17.9906H35.1796L36.0395 8.05916C36.0411 8.04117 36.0414 8.02344 36.0415 8.00572C36.0415 8.0042 36.0417 8.00278 36.0417 8.00126C36.0417 8.001 36.0417 8.00082 36.0417 8.00055C36.0417 7.73024 35.8795 7.492 35.6413 7.38842C35.6392 7.38753 35.6373 7.38646 35.6353 7.38557C35.6205 7.37933 35.6051 7.37399 35.5897 7.36882C35.584 7.36695 35.5785 7.36464 35.5727 7.36285C35.5602 7.35902 35.5472 7.356 35.5344 7.35288C35.5254 7.35074 35.5167 7.34816 35.5076 7.34638C35.4963 7.34415 35.4846 7.34273 35.4731 7.34103C35.4623 7.33943 35.4517 7.33756 35.4408 7.33658C35.439 7.3364 35.4373 7.33605 35.4354 7.33587C35.4237 7.3348 35.4122 7.33498 35.4006 7.33453C35.3928 7.33426 35.3852 7.33337 35.3774 7.33337H35.3691C35.3684 7.33337 35.3677 7.33337 35.3671 7.33337H21.7873C21.4207 7.33337 21.1232 7.63263 21.1232 8.00135C21.1232 8.36919 21.4207 8.66933 21.7873 8.66933H34.6536L33.332 23.9327C33.3318 23.9338 33.3318 23.935 33.3317 23.9361L32.9982 27.7873H9.92336L10.3093 23.7797H14.7029C15.0697 23.7797 15.3669 23.4806 15.3669 23.1117C15.3669 22.7428 15.0697 22.4437 14.7029 22.4437H10.4381L11.253 13.9831H18.2456C18.6124 13.9831 18.9097 13.684 18.9097 13.3151C18.9097 12.9462 18.6124 12.6471 18.2456 12.6471H11.3817L11.7649 8.66933H19.131C19.4967 8.66933 19.7951 8.36919 19.7951 8.00135C19.7951 7.63263 19.4967 7.33337 19.131 7.33337H11.1622C11.1619 7.33337 11.1616 7.33346 11.1613 7.33346C10.8493 7.33337 10.5787 7.55425 10.5133 7.86045C10.5129 7.86268 10.5121 7.86482 10.5116 7.86705C10.5083 7.8837 10.5061 7.90071 10.5038 7.91781C10.5032 7.92324 10.5021 7.92841 10.5015 7.93384C10.5015 7.93491 10.5012 7.93589 10.5011 7.93696L10.0474 12.6471H1.99726C1.63043 12.6471 1.33319 12.9462 1.33319 13.3151C1.33319 13.684 1.63043 13.9831 1.99726 13.9831H9.91867L9.10373 22.4437H6.73443C6.3676 22.4437 6.07037 22.7428 6.07037 23.1117C6.07037 23.4806 6.3676 23.7797 6.73443 23.7797H8.97507L8.5313 28.3861C8.53121 28.3868 8.53121 28.3876 8.53113 28.3882L7.84501 35.5114C7.84492 35.5122 7.84484 35.5131 7.84475 35.5138L7.84448 35.5164C7.8436 35.5257 7.84369 35.5348 7.84315 35.544C7.84253 35.5563 7.84129 35.5683 7.84129 35.5808C7.84129 35.5813 7.84138 35.5819 7.84138 35.5825C7.84138 35.5997 7.84262 35.6166 7.84386 35.6335C7.84439 35.639 7.84422 35.6445 7.84484 35.6498C7.84661 35.6671 7.84953 35.6841 7.85263 35.701C7.85351 35.706 7.85396 35.7111 7.85493 35.716C7.8575 35.7288 7.86113 35.7412 7.86449 35.7538C7.86679 35.7626 7.86865 35.7716 7.87131 35.7802C7.87211 35.7826 7.87317 35.7849 7.87388 35.7874C7.90602 35.8868 7.96056 35.9761 8.03175 36.0489C8.03308 36.0503 8.03414 36.0518 8.03547 36.053C8.04255 36.0601 8.05025 36.0666 8.05769 36.0733C8.10347 36.1155 8.15518 36.1513 8.21175 36.1794C8.22353 36.1853 8.23513 36.1914 8.24717 36.1965C8.2508 36.1981 8.2547 36.1992 8.25842 36.2006C8.27506 36.2073 8.2918 36.2137 8.30906 36.2191C8.31066 36.2196 8.31216 36.2198 8.31375 36.2204C8.33341 36.2262 8.35324 36.2314 8.37352 36.2356C8.37618 36.2361 8.37892 36.2363 8.38149 36.2368C8.40079 36.2405 8.42018 36.2436 8.43993 36.2456C8.44037 36.2456 8.44072 36.2457 8.44117 36.2458C8.46295 36.2479 8.48455 36.249 8.50598 36.249C8.50625 36.249 8.5066 36.2489 8.50695 36.2489H11.4632C11.7896 38.7385 13.9116 40.6667 16.4744 40.6667C19.0371 40.6667 21.159 38.7385 21.4854 36.2489H32.137C32.4635 38.7385 34.5853 40.6667 37.1481 40.6667C39.7108 40.6667 41.8328 38.7385 42.1594 36.2489H45.1163C45.1168 36.2489 45.1173 36.249 45.1177 36.249C45.1399 36.249 45.1617 36.2476 45.1833 36.2455C45.1872 36.2451 45.1909 36.2443 45.1948 36.2439C45.212 36.2418 45.2292 36.2394 45.246 36.236C45.2533 36.2346 45.2603 36.2327 45.2675 36.231C45.2805 36.2279 45.2936 36.2247 45.3063 36.2209C45.315 36.2183 45.3234 36.2153 45.3319 36.2124C45.3428 36.2086 45.3537 36.2047 45.3644 36.2003C45.3736 36.1967 45.3824 36.1927 45.3913 36.1887C45.4011 36.1841 45.4108 36.1795 45.4203 36.1746C45.4293 36.17 45.438 36.1651 45.4467 36.1602C45.4558 36.1548 45.4648 36.1493 45.4738 36.1436C45.4821 36.1383 45.4904 36.1328 45.4984 36.1271C45.5074 36.1208 45.516 36.1141 45.5248 36.1073C45.532 36.1016 45.5394 36.0959 45.5465 36.0898C45.5556 36.0821 45.5642 36.0739 45.5729 36.0657C45.5789 36.0599 45.5852 36.0542 45.591 36.0481C45.6002 36.0387 45.609 36.0287 45.6177 36.0186C45.6224 36.0132 45.6273 36.008 45.6318 36.0024C45.6416 35.9903 45.6504 35.9778 45.6593 35.9653C45.6623 35.9609 45.6656 35.9568 45.6686 35.9524C45.6794 35.9361 45.6896 35.9193 45.6989 35.9021C45.6996 35.901 45.7004 35.9 45.7008 35.8988C45.7108 35.8803 45.72 35.8614 45.7282 35.8418C45.7305 35.8361 45.7323 35.8304 45.7345 35.8247C45.7399 35.8109 45.7452 35.7971 45.7498 35.7828C45.7527 35.7735 45.7548 35.764 45.7574 35.7547C45.7603 35.7435 45.7634 35.7325 45.7659 35.7212C45.7681 35.7111 45.7695 35.7008 45.7712 35.6905C45.7727 35.6815 45.7746 35.6727 45.7758 35.6635C45.8039 35.4366 46.324 31.24 46.5562 28.5264C46.5565 28.5238 46.5566 28.5211 46.5568 28.5186C46.6237 27.7363 46.6665 27.0776 46.6665 26.6743C46.6665 21.8862 42.7939 17.9906 38.0337 17.9906ZM35.0639 19.3267H37.7806L37.4336 23.3342H34.7169L35.0639 19.3267ZM16.4746 39.3307C14.4189 39.3307 12.7465 37.6484 12.7465 35.5807C12.7465 33.513 14.419 31.8308 16.4746 31.8308C18.5302 31.8308 20.2026 33.513 20.2026 35.5807C20.2026 37.6484 18.5302 39.3307 16.4746 39.3307ZM37.1481 39.3307C35.0925 39.3307 33.4202 37.6484 33.4202 35.5807C33.4202 33.513 35.0926 31.8308 37.1481 31.8308C39.2038 31.8308 40.8761 33.513 40.8761 35.5807C40.8761 37.6484 39.2038 39.3307 37.1481 39.3307ZM44.5296 34.9125H42.1596C41.8332 32.4227 39.7112 30.4944 37.1483 30.4944C34.5855 30.4944 32.4635 32.4228 32.1371 34.9125H21.4857C21.1593 32.4227 19.0374 30.4944 16.4746 30.4944C13.9117 30.4944 11.7896 32.4228 11.4633 34.9125H9.23698L9.79471 29.123H33.6068V29.1233C33.6071 29.1233 33.6074 29.1233 33.6077 29.1233C33.63 29.1233 33.652 29.1221 33.6738 29.1198C33.6779 29.1195 33.6818 29.1186 33.6859 29.1181C33.7033 29.116 33.7205 29.1135 33.7375 29.1101C33.7449 29.1086 33.7521 29.1066 33.7593 29.1048C33.7726 29.1016 33.7859 29.0985 33.7988 29.0945C33.8077 29.0919 33.8161 29.0887 33.8247 29.0856C33.8358 29.0817 33.847 29.0779 33.8578 29.0734C33.8671 29.0696 33.876 29.0653 33.885 29.0611C33.8949 29.0565 33.9047 29.052 33.9142 29.047C33.9232 29.0422 33.9321 29.037 33.941 29.0318C33.9501 29.0265 33.9592 29.0211 33.968 29.0154C33.9766 29.0098 33.9847 29.0039 33.993 28.998C34.0017 28.9918 34.0102 28.9853 34.0187 28.9787C34.0264 28.9725 34.0339 28.9662 34.0413 28.9597C34.0497 28.9524 34.058 28.9449 34.0659 28.9372C34.0727 28.9307 34.0794 28.924 34.0859 28.9171C34.0939 28.9088 34.1016 28.9001 34.1092 28.8913C34.1152 28.8843 34.121 28.8774 34.1267 28.8703C34.134 28.8609 34.141 28.8513 34.1479 28.8416C34.1531 28.8343 34.1582 28.827 34.1632 28.8195C34.1696 28.8094 34.1758 28.7991 34.1817 28.7886C34.1863 28.7808 34.1909 28.7729 34.1949 28.7649C34.2005 28.7544 34.2053 28.7437 34.2103 28.7329C34.2142 28.7243 34.2182 28.7158 34.2218 28.7069C34.2261 28.6964 34.2297 28.6856 34.2335 28.6749C34.2368 28.6653 34.2403 28.6558 34.2432 28.646C34.2461 28.6357 34.2485 28.6251 34.2512 28.6146C34.2537 28.604 34.2566 28.5935 34.2586 28.5827C34.2606 28.5722 34.2619 28.5615 34.2635 28.5508C34.2651 28.5398 34.2669 28.5289 34.268 28.5177C34.2682 28.5161 34.2685 28.5146 34.2686 28.513L34.6014 24.6698H38.0335C40.0681 24.6698 40.9858 25.7302 41.9572 26.853C42.7587 27.7793 43.6536 28.8129 45.1748 29.0651C44.9816 31.1198 44.6693 33.7575 44.5296 34.9125ZM45.2883 27.7264C44.3015 27.5241 43.6943 26.8263 42.9588 25.9762C42.039 24.9133 40.916 23.616 38.7633 23.3743L39.1068 19.4067C42.6276 19.9305 45.3384 22.9897 45.3384 26.6745C45.3384 26.9249 45.3198 27.2886 45.2883 27.7264Z" fill="#FFB6C1" stroke="#FFB6C1" stroke-width="0.3"/>
<path d="M14.5397 35.5806C14.5397 34.5034 15.4109 33.6313 16.4746 33.6313C17.5382 33.6313 18.4095 34.5035 18.4095 35.5806C18.4095 36.6578 17.5382 37.5299 16.4746 37.5299C15.4109 37.5299 14.5397 36.6578 14.5397 35.5806ZM14.8678 35.5806C14.8678 36.4679 15.5854 37.1939 16.4746 37.1939C17.3637 37.1939 18.0814 36.4679 18.0814 35.5806C18.0814 34.6933 17.3638 33.9673 16.4746 33.9673C15.5854 33.9673 14.8678 34.6933 14.8678 35.5806Z" fill="#FFB6C1" stroke="#FFB6C1"/>
<path d="M35.2136 35.5806C35.2136 34.5034 36.0848 33.6313 37.1485 33.6313C38.2121 33.6313 39.0834 34.5035 39.0834 35.5806C39.0834 36.6578 38.2121 37.5299 37.1485 37.5299C36.0848 37.5299 35.2136 36.6578 35.2136 35.5806ZM35.5417 35.5806C35.5417 36.4679 36.2592 37.1939 37.1485 37.1939C38.0377 37.1939 38.7552 36.4679 38.7552 35.5806C38.7552 34.6933 38.0377 33.9673 37.1485 33.9673C36.2592 33.9673 35.5417 34.6933 35.5417 35.5806Z" fill="#FFB6C1" stroke="#FFB6C1"/>
<path d="M7.61971 17.9907H4.37323C4.0064 17.9907 3.70917 18.2898 3.70917 18.6587C3.70917 19.0276 4.0064 19.3267 4.37323 19.3267H7.61971C7.98654 19.3267 8.28378 19.0276 8.28378 18.6587C8.28378 18.2898 7.98654 17.9907 7.61971 17.9907Z" fill="#FFB6C1" stroke="#FFB6C1" stroke-width="0.3"/>
</svg>
