<svg width="48" height="48" viewBox="0 0 48 48" fill="none" xmlns="http://www.w3.org/2000/svg">
<path d="M45.861 9.87938C45.2736 9.18369 44.4511 8.75875 43.5447 8.6829L11.6205 6.01211C10.714 5.93626 9.83269 6.21863 9.13826 6.80707C8.44666 7.39319 8.02317 8.21317 7.94508 9.11689L7.3028 15.1543H4.7382C2.86077 15.1543 1.33334 16.6847 1.33334 18.5658V38.5885C1.33334 40.4696 2.86077 42 4.7382 42H36.7736C38.6511 42 40.1785 40.4696 40.1785 38.5885V35.3405L41.3153 35.4356C41.4112 35.4436 41.5066 35.4476 41.6011 35.4476C43.3514 35.4476 44.8435 34.0983 44.9917 32.3198L46.6546 12.3665C46.7302 11.4584 46.4484 10.5752 45.861 9.87938ZM4.7382 16.9286H36.7736C37.6746 16.9286 38.4077 17.6631 38.4077 18.5658V20.3903H3.10417V18.5658C3.10417 17.6631 3.8372 16.9286 4.7382 16.9286ZM3.10417 22.1645H38.4077V25.8452H3.10417V22.1645ZM36.7736 40.2257H4.7382C3.8372 40.2257 3.10417 39.4913 3.10417 38.5885V27.6194H38.4077V38.5885C38.4077 39.4913 37.6746 40.2257 36.7736 40.2257ZM44.8899 12.2188L43.227 32.1721C43.152 33.0717 42.3604 33.7429 41.4626 33.6674L40.1785 33.56V18.5658C40.1785 16.6847 38.6511 15.1543 36.7736 15.1543H9.08372L9.70696 9.29573C9.70767 9.28899 9.70829 9.28234 9.70882 9.27551C9.78381 8.37587 10.575 7.70484 11.4732 7.78025L43.3974 10.451C43.8325 10.4874 44.2273 10.6914 44.5091 11.0253C44.7909 11.3592 44.9262 11.783 44.8899 12.2188Z" fill="#FFB6C1"/>
<path d="M34.7028 30.2573H26.1814C25.6924 30.2573 25.296 30.6545 25.296 31.1445V36.7147C25.296 37.2047 25.6924 37.6018 26.1814 37.6018H34.7028C35.1918 37.6018 35.5882 37.2047 35.5882 36.7147V31.1445C35.5882 30.6545 35.1918 30.2573 34.7028 30.2573ZM33.8174 35.8276H27.0668V32.0316H33.8174V35.8276Z" fill="#FFB6C1"/>
</svg>
