<svg width="48" height="48" viewBox="0 0 48 48" fill="none" xmlns="http://www.w3.org/2000/svg">
<path d="M46.1171 26.5762C45.8639 25.6586 45.6254 24.7914 45.6254 24C45.6254 23.2087 45.8639 22.3414 46.1171 21.4239C46.5202 19.9634 46.936 18.4526 46.4384 16.9842C45.922 15.4567 44.635 14.4584 43.3904 13.4945C42.6445 12.916 41.9399 12.3701 41.4826 11.7689C41.0175 11.1559 40.6884 10.338 40.3415 9.47169C39.769 8.04862 39.1777 6.57627 37.8533 5.65187C36.5506 4.74126 34.9246 4.65355 33.3548 4.56978C32.3753 4.51755 31.449 4.46729 30.6735 4.22584C29.9482 4.00016 29.1973 3.53204 28.403 3.03633C27.1249 2.23807 25.6754 1.33337 23.9991 1.33337C22.3229 1.33337 20.8734 2.23807 19.5953 3.03732C18.801 3.53303 18.0521 4.00213 17.3258 4.22682C16.5493 4.46827 15.623 4.51853 14.6435 4.57077C13.0727 4.65552 11.4487 4.74224 10.145 5.65285C8.82057 6.57726 8.22931 8.04862 7.65678 9.47169C7.30794 10.338 6.9788 11.1569 6.51368 11.7699C6.05644 12.373 5.35186 12.919 4.60589 13.4985C3.36228 14.4633 2.07727 15.4596 1.56091 16.9852C1.06327 18.4546 1.47912 19.9644 1.88117 21.4259C2.13443 22.3434 2.3729 23.2097 2.3729 24.001C2.3729 24.7924 2.13443 25.6596 1.88117 26.5771C1.47912 28.0377 1.06327 29.5484 1.56091 31.0188C2.07727 32.5444 3.36326 33.5427 4.60687 34.5065C5.35284 35.084 6.05743 35.631 6.51368 36.2322C6.97979 36.8451 7.30892 37.6631 7.65678 38.5304C8.22931 39.9534 8.82156 41.4258 10.147 42.3522C11.4487 43.2608 13.0737 43.3475 14.6435 43.4313C15.623 43.4835 16.5493 43.5338 17.3248 43.7752C18.0501 44.0009 18.8 44.469 19.5933 44.9637C20.8724 45.761 22.3219 46.6667 23.9991 46.6667C25.6763 46.6667 27.1269 45.761 28.407 44.9628C29.2002 44.468 29.9492 43.9999 30.6754 43.7742C31.451 43.5328 32.3773 43.4825 33.3568 43.4303C34.9276 43.3465 36.5515 43.2598 37.8533 42.3512C39.1807 41.4248 39.7719 39.9505 40.3445 38.5264C40.6923 37.6611 41.0205 36.8432 41.4836 36.2322C41.9409 35.631 42.6454 35.084 43.3914 34.5065C44.636 33.5417 45.922 32.5444 46.4393 31.0178C46.937 29.5475 46.5202 28.0377 46.1171 26.5762ZM44.5718 30.3861C44.2457 31.35 43.2435 32.1265 42.1832 32.9484C41.3702 33.5792 40.5286 34.2316 39.9137 35.0397C39.2899 35.8636 38.8958 36.8432 38.5144 37.7922C38.0286 39.0024 37.5694 40.1446 36.7249 40.734C35.8833 41.3213 34.6052 41.3893 33.2512 41.4613C32.1939 41.5174 31.099 41.5756 30.088 41.8909C29.1213 42.1935 28.2265 42.7503 27.3623 43.2904C26.2044 44.0137 25.1116 44.6957 23.999 44.6957C22.8865 44.6957 21.7946 44.0137 20.6367 43.2904C19.7735 42.7513 18.8797 42.1935 17.912 41.8909C16.901 41.5766 15.8062 41.5174 14.7488 41.4613C13.3948 41.3893 12.1157 41.3203 11.2752 40.734C10.4316 40.1446 9.97143 39.0024 9.48561 37.7932C9.10425 36.8442 8.70909 35.8636 8.08433 35.0397C7.47041 34.2316 6.62885 33.5792 5.81489 32.9475C4.75555 32.1255 3.75435 31.35 3.42818 30.3861C3.12368 29.4883 3.44394 28.3274 3.78194 27.0995C4.05787 26.0952 4.34364 25.0585 4.34364 23.9991C4.34364 22.9396 4.05787 21.9039 3.78194 20.8996C3.44296 19.6717 3.12368 18.5117 3.42818 17.614C3.75435 16.6501 4.75456 15.8745 5.8139 15.0526C6.62787 14.4209 7.47041 13.7675 8.08335 12.9584C8.71008 12.1345 9.10425 11.153 9.4866 10.2039C9.97143 8.99471 10.4306 7.85349 11.2732 7.26613C12.1147 6.67778 13.3948 6.60978 14.7498 6.53784C15.8062 6.48068 16.901 6.42253 17.911 6.10717C18.8797 5.80561 19.7745 5.24682 20.6397 4.70677C21.7956 3.98636 22.8875 3.30439 23.999 3.30439C25.1106 3.30439 26.2034 3.98636 27.3603 4.70874C28.2255 5.24978 29.1193 5.80758 30.088 6.10914C31.0981 6.42352 32.1919 6.48166 33.2492 6.53882C34.6042 6.61076 35.8833 6.68074 36.7249 7.2681C37.5684 7.85743 38.0276 8.99865 38.5124 10.2059C38.8948 11.1559 39.288 12.1365 39.9147 12.9604C40.5286 13.7685 41.3702 14.4209 42.1832 15.0516C43.2435 15.8745 44.2457 16.6511 44.5718 17.6169C44.8763 18.5127 44.5551 19.6727 44.2171 20.9006C43.9402 21.9049 43.6544 22.9416 43.6544 24.001C43.6544 25.0604 43.9392 26.0972 44.2171 27.1004C44.5562 28.3284 44.8763 29.4883 44.5718 30.3861Z" fill="#FFB6C1"/>
<path d="M23.9994 9.21692C15.849 9.21692 9.218 15.8484 9.218 23.9995C9.218 32.1507 15.849 38.7821 23.9994 38.7821C32.1499 38.7821 38.7809 32.1507 38.7809 23.9995C38.7809 15.8484 32.1499 9.21692 23.9994 9.21692ZM23.9994 36.8111C16.9359 36.8111 11.1889 31.0636 11.1889 23.9995C11.1889 16.9354 16.9359 11.1879 23.9994 11.1879C27.6426 11.1879 30.927 12.7243 33.2625 15.1743L23.8713 28.391L18.7836 23.3028C18.3983 22.9174 17.7755 22.9174 17.3902 23.3028C17.0049 23.6881 17.0049 24.3109 17.3902 24.6963L23.3028 30.6093C23.488 30.7956 23.7393 30.8981 23.9994 30.8981C24.0261 30.8981 24.0546 30.8971 24.0822 30.8941C24.371 30.8705 24.6351 30.7197 24.8026 30.4832L34.5554 16.757C35.9744 18.8187 36.81 21.3121 36.81 23.9995C36.81 31.0636 31.063 36.8111 23.9994 36.8111Z" fill="#FFB6C1"/>
</svg>
