<svg width="24" height="24" viewBox="0 0 24 24" fill="none" xmlns="http://www.w3.org/2000/svg">
<path d="M12.0006 7.07622C9.27639 7.07622 7.07904 9.27357 7.07904 11.9978C7.07904 14.722 9.27639 16.9193 12.0006 16.9193C14.7248 16.9193 16.9221 14.722 16.9221 11.9978C16.9221 9.27357 14.7248 7.07622 12.0006 7.07622ZM12.0006 15.1974C10.2401 15.1974 8.80094 13.7625 8.80094 11.9978C8.80094 10.233 10.2359 8.79812 12.0006 8.79812C13.7653 8.79812 15.2002 10.233 15.2002 11.9978C15.2002 13.7625 13.761 15.1974 12.0006 15.1974ZM18.2714 6.87491C18.2714 7.51312 17.7574 8.02284 17.1234 8.02284C16.4852 8.02284 15.9755 7.50884 15.9755 6.87491C15.9755 6.24097 16.4895 5.72697 17.1234 5.72697C17.7574 5.72697 18.2714 6.24097 18.2714 6.87491ZM21.531 8.03997C21.4582 6.50226 21.1069 5.14016 19.9804 4.01793C18.8582 2.8957 17.4961 2.54446 15.9584 2.46736C14.3735 2.37741 9.62333 2.37741 8.03851 2.46736C6.50507 2.54018 5.14298 2.89141 4.01646 4.01364C2.88995 5.13588 2.543 6.49797 2.4659 8.03569C2.37595 9.62052 2.37595 14.3707 2.4659 15.9556C2.53872 17.4933 2.88995 18.8554 4.01646 19.9776C5.14298 21.0998 6.50079 21.4511 8.03851 21.5282C9.62333 21.6181 14.3735 21.6181 15.9584 21.5282C17.4961 21.4553 18.8582 21.1041 19.9804 19.9776C21.1026 18.8554 21.4539 17.4933 21.531 15.9556C21.6209 14.3707 21.6209 9.6248 21.531 8.03997ZM19.4835 17.656C19.1494 18.4956 18.5027 19.1423 17.6589 19.4807C16.3953 19.9819 13.3969 19.8662 12.0006 19.8662C10.6042 19.8662 7.60161 19.9776 6.34231 19.4807C5.50278 19.1466 4.85599 18.4998 4.51761 17.656C4.01646 16.3925 4.13211 13.3941 4.13211 11.9978C4.13211 10.6014 4.02075 7.59879 4.51761 6.33949C4.85171 5.49996 5.49849 4.85318 6.34231 4.51479C7.60589 4.01364 10.6042 4.12929 12.0006 4.12929C13.3969 4.12929 16.3996 4.01793 17.6589 4.51479C18.4984 4.84889 19.1452 5.49567 19.4835 6.33949C19.9847 7.60307 19.869 10.6014 19.869 11.9978C19.869 13.3941 19.9847 16.3967 19.4835 17.656Z" fill="black"/>
</svg>
