<svg width="24" height="24" viewBox="0 0 24 24" fill="none" xmlns="http://www.w3.org/2000/svg">
<path d="M12.6484 2.3999C8.7015 2.3999 4.80078 5.03116 4.80078 9.28964C4.80078 11.9978 6.32414 13.5366 7.24739 13.5366C7.62823 13.5366 7.8475 12.4748 7.8475 12.1748C7.8475 11.817 6.93579 11.0553 6.93579 9.56661C6.93579 6.47373 9.29007 4.28102 12.3368 4.28102C14.9565 4.28102 16.8953 5.76976 16.8953 8.50488C16.8953 10.5476 16.0759 14.379 13.4216 14.379C12.4637 14.379 11.6444 13.6866 11.6444 12.6941C11.6444 11.24 12.6599 9.83204 12.6599 8.33177C12.6599 5.78514 9.04772 6.24677 9.04772 9.32426C9.04772 9.97053 9.1285 10.686 9.41702 11.2746C8.88615 13.5597 7.80133 16.9641 7.80133 19.3184C7.80133 20.0455 7.9052 20.761 7.97444 21.488C8.10524 21.6342 8.03984 21.6188 8.23988 21.5457C10.1787 18.8914 10.1095 18.3721 10.9865 14.8984C11.4597 15.7985 12.683 16.2832 13.6524 16.2832C17.7378 16.2832 19.5727 12.3017 19.5727 8.71261C19.5727 4.89267 16.2721 2.3999 12.6484 2.3999Z" fill="black"/>
</svg>
