<svg width="32" height="32" viewBox="0 0 32 32" fill="none" xmlns="http://www.w3.org/2000/svg">
<path d="M22 26.6667H1.768C0.793333 26.6667 0 25.8733 0 24.8987V8.66667C0 8.29867 0.298667 8 0.666667 8H26C26.368 8 26.6667 8.29867 26.6667 8.66667V14C26.6667 14.368 26.368 14.6667 26 14.6667C25.632 14.6667 25.3333 14.368 25.3333 14V9.33333H1.33333V24.8987C1.33333 25.1387 1.528 25.3333 1.768 25.3333H22C22.368 25.3333 22.6667 25.632 22.6667 26C22.6667 26.368 22.368 26.6667 22 26.6667Z" fill="#121212"/>
<path d="M26 9.33333C25.7653 9.33333 25.5373 9.20933 25.416 8.988L21.3893 1.67867C21.2733 1.46533 21.0493 1.33333 20.8053 1.33333H5.86133C5.61733 1.33333 5.39332 1.46533 5.27732 1.67867L1.25066 8.988C1.07332 9.312 0.665325 9.42533 0.345325 9.25067C0.0226582 9.07333 -0.0946752 8.66667 0.0826582 8.34533L4.10932 1.036C4.45999 0.396 5.13199 0 5.86133 0H20.8067C21.536 0 22.208 0.396 22.5587 1.03467L26.584 8.344C26.7627 8.66667 26.6453 9.072 26.3227 9.24933C26.22 9.30667 26.1093 9.33333 26 9.33333Z" fill="#121212"/>
<path d="M13.3346 9.33333C12.9666 9.33333 12.668 9.03467 12.668 8.66667V0.666667C12.668 0.298667 12.9666 0 13.3346 0C13.7026 0 14.0013 0.298667 14.0013 0.666667V8.66667C14.0013 9.03467 13.7026 9.33333 13.3346 9.33333Z" fill="#121212"/>
<path d="M31.3333 32C30.9653 32 30.6667 31.7013 30.6667 31.3333V28.6667C30.6667 24.6227 27.376 21.3333 23.3333 21.3333H20.6667C20.2987 21.3333 20 21.0347 20 20.6667C20 20.2987 20.2987 20 20.6667 20H23.3333C28.112 20 32 23.888 32 28.6667V31.3333C32 31.7013 31.7013 32 31.3333 32Z" fill="#121212"/>
<path d="M25.3333 25.3334C25.18 25.3334 25.0253 25.2801 24.9 25.1721L20.2333 21.172C20.084 21.0467 20 20.8614 20 20.6667C20 20.472 20.084 20.2867 20.2333 20.1614L24.9 16.1614C25.1787 15.9227 25.5973 15.9534 25.84 16.2334C26.08 16.512 26.0467 16.9334 25.7667 17.1734L21.692 20.6667L25.768 24.1614C26.048 24.4014 26.08 24.8214 25.8413 25.1014C25.7067 25.2547 25.5213 25.3334 25.3333 25.3334Z" fill="#121212"/>
</svg>
