<svg width="24" height="24" viewBox="0 0 24 24" fill="none" xmlns="http://www.w3.org/2000/svg">
<path d="M19.6249 8.68634C19.6371 8.85689 19.6371 9.02748 19.6371 9.19803C19.6371 14.4 15.6777 20.394 8.4411 20.394C6.21164 20.394 4.14058 19.7483 2.39844 18.6275C2.7152 18.664 3.01974 18.6762 3.34869 18.6762C5.18826 18.6762 6.88169 18.0549 8.23399 16.995C6.50403 16.9585 5.05427 15.8255 4.55477 14.2661C4.79845 14.3026 5.04209 14.327 5.29795 14.327C5.65124 14.327 6.00456 14.2782 6.33348 14.193C4.53043 13.8275 3.1781 12.2437 3.1781 10.331V10.2823C3.70194 10.5747 4.31113 10.7574 4.95677 10.7818C3.89687 10.0752 3.20248 8.86908 3.20248 7.5046C3.20248 6.77364 3.39737 6.10359 3.73851 5.51881C5.67558 7.90664 8.58728 9.466 11.8522 9.63659C11.7913 9.3442 11.7548 9.03967 11.7548 8.73509C11.7548 6.56653 13.5091 4.80005 15.6898 4.80005C16.8228 4.80005 17.8461 5.27518 18.5649 6.04269C19.4543 5.87214 20.307 5.54319 21.0624 5.09244C20.77 6.00617 20.1487 6.77368 19.3325 7.26096C20.1243 7.17572 20.8919 6.95638 21.5984 6.65184C21.0625 7.43151 20.3924 8.1259 19.6249 8.68634Z" fill="black"/>
</svg>
