<svg width="24" height="24" viewBox="0 0 24 24" fill="none" xmlns="http://www.w3.org/2000/svg">
<path d="M21.1972 6.91234C20.9764 6.08089 20.3258 5.42608 19.4998 5.20385C18.0024 4.80005 11.9984 4.80005 11.9984 4.80005C11.9984 4.80005 5.99446 4.80005 4.49712 5.20385C3.67106 5.42611 3.02046 6.08089 2.79964 6.91234C2.39844 8.41938 2.39844 11.5637 2.39844 11.5637C2.39844 11.5637 2.39844 14.708 2.79964 16.215C3.02046 17.0465 3.67106 17.674 4.49712 17.8962C5.99446 18.3 11.9984 18.3 11.9984 18.3C11.9984 18.3 18.0024 18.3 19.4998 17.8962C20.3258 17.674 20.9764 17.0465 21.1972 16.215C21.5984 14.708 21.5984 11.5637 21.5984 11.5637C21.5984 11.5637 21.5984 8.41938 21.1972 6.91234ZM10.0348 14.4185V8.70889L15.0529 11.5638L10.0348 14.4185Z" fill="black"/>
</svg>
